<?xml version="1.0" encoding="utf-8"?>
<!-- Generator: Adobe Illustrator 19.0.0, SVG Export Plug-In . SVG Version: 6.00 Build 0)  -->
<svg version="1.1" id="Layer_1" xmlns="http://www.w3.org/2000/svg" xmlns:xlink="http://www.w3.org/1999/xlink" x="0px" y="0px"
	 viewBox="0 0 500 500" style="enable-background:new 0 0 500 500;" xml:space="preserve">
<style type="text/css">
	.st0{clip-path:url(#XMLID_61_);fill:#611C66;}
	.st1{fill:#611C66;}
	.st2{fill:#FFFFFF;}
	.st3{fill:#231F20;}
</style>
<g id="XMLID_1_">
	<g id="XMLID_2_">
		<defs>
			<polygon id="XMLID_3_" points="432.5,328.8 432.5,171.2 67.5,171.2 67.5,328.8 432.5,328.8 			"/>
		</defs>
		<clipPath id="XMLID_61_">
			<use xlink:href="#XMLID_3_"  style="overflow:visible;"/>
		</clipPath>
		<path id="XMLID_4_" class="st0" d="M112.1,208.1c0-0.8,0-0.2,0-1c-0.1-13.9-1-27-2.1-35.9c-13.2,0.1-25.7,1.4-34.9,3.5
			c-3.7,0.8-5,3.5-5.4,5.6c-1,5.4-2.3,15.6-2.1,26.5c0,1.2,0,1,0.1,2.1c2.2-2.2,23-22.3,23-22.3L112.1,208.1"/>
	</g>
	<path id="XMLID_5_" class="st1" d="M110.7,214.4c-0.7,0.1-1.2,0.6-1.3,1.3c-0.1,0.7-0.2,1.5-0.2,1.5h0h0c-11.1,0-25.3-0.2-41.4-2.4
		l22.7-22l21.5,21.5L110.7,214.4"/>
	<path id="XMLID_6_" class="st1" d="M122.6,217.2c2.8,0,25.8-0.3,41.1-2.4c0.9-8.4,0.2-24.7-1.6-34.5c-0.4-2.1-1.8-4.7-5.4-5.6
		c-9.3-2.2-21.7-3.4-34.9-3.5c-1.1,9.4-2.1,22.5-2.1,37.3l0,5.6v0.1l1.4,0.1c0.7,0.1,1.2,0.6,1.3,1.3
		C122.5,216.3,122.6,217.2,122.6,217.2L122.6,217.2"/>
	<path id="XMLID_7_" class="st1" d="M112.1,227.9l-1.4-0.1c-0.7-0.1-1.2-0.6-1.3-1.3c-0.1-0.6-0.2-1.5-0.2-1.5l0,0
		c-0.1,0,0.1,0-0.1,0c-11.1,0-23.6,0.1-39.8,2.3c2.2,12.6,16.6,41.1,39.8,53.2c1.1-9.4,3-32.4,3-47.2L112.1,227.9L112.1,227.9
		L112.1,227.9L112.1,227.9"/>
	<path id="XMLID_8_" class="st1" d="M122.6,224.9C122.6,224.9,122.5,224.9,122.6,224.9c11.1,0,23.8,0.1,40,2.3
		c-2.2,12.6-16.6,41.1-39.8,53.2c-1.1-9.4-3.1-32.4-3.1-47.2l0.1-5.4l0,0l1.3-0.1c0.7-0.1,1.2-0.6,1.2-1.3
		C122.5,225.8,122.6,224.9,122.6,224.9L122.6,224.9"/>
	<path id="XMLID_9_" class="st2" d="M88.4,200.6c0.7,0,1.6-0.7,1.7-0.8l-0.1-0.1c-0.2,0.1-0.8,0.4-1.2,0.4c-0.5,0-0.5-0.5-0.4-0.8
		c-0.3,0.4-0.6,0.5-0.6,0.9C87.9,200.3,88,200.6,88.4,200.6L88.4,200.6z M91.2,198.6c-0.1,0.1-0.4,0.1-0.5,0.2
		c-0.1-0.1-0.1-0.3,0-0.4c0,0,0.7,0,0.8,0C91.3,198.5,91.3,198.5,91.2,198.6z M95,204.2c0.4-0.5,1-0.4,1-1.1c0-0.8-1.1-1-1.2-1.7
		c0,0.1,0,0-0.1,0.1c-0.1,0.7,0.4,1.1,0.4,1.5c0,0.2-0.2,0.7-0.5,1c0.1-0.1,0.2-0.4,0.2-0.6c0-0.2-0.1-0.3-0.4-0.3
		c-0.4,0-0.6,0.4-1,0.5c0.3,0.2,0.7-0.1,0.7,0.4c0,0.5-0.7,1-0.7,1.8c0,1.3,0.9,1.7,0.9,2.5c0,0.4-0.3,0.7-0.7,0.7
		c-0.4,0-0.6-0.3-0.8-0.6c0-0.2-0.1-0.7-0.4-1.3c-0.2-0.4-0.7-1.3-0.7-2.3c0-0.7,0.1-0.9,0.3-1.2c0.1,0.1,0.3,0.2,0.5,0.3
		c-0.1-0.5,0.1-0.9,0.2-1.1c0.1,0.1,0.3,0.2,0.4,0.3c0-0.3,0.3-0.8,0.1-1.3c0.2,0.1,0.5,0.2,0.6,0.3c-0.2-0.2-0.3-1.2-0.9-1.8
		c0.3,0,0.4-0.1,0.7,0c-0.2-0.5-0.4-0.7-0.8-0.8c0.2-0.1,0.4-0.6,0.5-0.8c-0.1,0.1-0.5,0.1-0.7,0.1c0.2-0.1,0.4-0.5,0.4-0.8
		c-0.1,0.1-0.6,0.2-0.7,0.2c0.1-0.2,0-0.7-0.3-0.7c0.2,0.4-0.3,0.7-0.7,0.7c-0.1,0-0.5,0-0.5,0c-0.3,0-0.3,0.1-0.4,0.2
		c-0.1,0.2-0.2,0.3-0.5,0.4c-0.1,0-0.4,0.1-0.5,0.1c-0.2,0-0.3,0.2-0.2,0.4l0,0.1c0.1,0.1,0.1,0.2,0.1,0.2c0,0,0.1,0.2,0.1,0.3
		c0-0.1,0.1-0.3,0.2-0.3c0.2-0.1,0.2-0.1,0.3-0.1c0.2,0,0.3,0.1,0.4,0.3c0.1,0.4-0.1,0.6-0.3,0.6c-0.1,0-0.2,0-0.3,0
		c-0.1,0-0.3,0.1-0.3,0.3c0,0.1,0.1,0.3,0,0.4c0.5-0.3,1-0.4,1.3-0.4c-0.2,0.5-0.2,1-1,0.9c-0.1,0-0.4,0-0.5,0
		c0.2,0.2,0.1,0.2,0.2,0.5c-0.2,0-0.5-0.1-0.8-0.1c0.2,0.2,0.2,0.4,0.3,0.6c-0.2,0-0.6-0.1-0.9-0.2c-0.3-0.1-0.7-0.2-0.9-0.3
		c-0.8-0.4-0.4-0.6-0.4-1c0-0.1-0.1-0.3-0.4-0.4c-0.1-0.1-0.3-0.2-0.7-0.2c0.2,0,0.3,0.1,0.3,0.3c-0.1,0.1-0.1,0.3-0.1,0.5l-0.1,0.1
		c-0.1-0.1-0.3-0.2-0.6,0c-0.1,0-0.2-0.1-0.6,0.2c0.3-0.1,0.4-0.1,0.5,0.1c0,0.3,0.2,0.4,0.4,0.4c0,0.1,0,0,0,0.1
		c-0.1,0-0.2,0-0.3,0.2c-0.1,0-0.5,0.3-0.5,0.4c0.2-0.1,0.3-0.2,0.5-0.1c0,0.3,0.4,0.3,0.5,0.3c0.1,0,0.2,0,0.3-0.1
		c0.5,0,0.5,0.2,0.5,0.4c0,0.1-0.1,0.5-0.3,0.6c0.5,0.1,0.8-0.1,1-0.1c-0.1,0.2,0,0.5-0.2,0.7c0.5,0,1.1-0.6,1.5-0.6
		c0.2,0,0.2,0,0.4,0c0.1,0.7-1.3,1.5-2.2,1.5c-0.4,0-0.8,0-0.9-0.3c0-0.2-0.2-0.4-0.6-0.3c-0.2-0.1-0.5,0-0.7,0.2
		c0.1,0,0.3-0.2,0.4,0c0,0.2,0.1,0.3,0.2,0.4l0,0.1c-0.2,0-0.4,0.1-0.5,0.2c-0.2,0.1-0.3,0.3-0.4,0.6c0.2-0.2,0.2-0.3,0.4-0.3
		c0.1,0.1,0.3,0.2,0.5,0.1l0,0.1c-0.1,0.1-0.2,0.2-0.1,0.5c-0.1,0.1-0.2,0.2-0.1,0.6c0.1-0.4,0.2-0.4,0.3-0.5
		c0.3,0.1,0.5-0.1,0.6-0.3c0.1-0.1,0.3-0.2,0.5-0.2c0.4,0,0.6,0.3,0.7,0.6c0.1-0.3,0.3-0.6,0.6-0.6c0.1,0,0.3,0.1,0.3,0.2
		c0.2-0.3,0.5-0.7,0.8-0.8c0,0.3,0.2,0.6,0.4,0.8c0.5,0.4,0.9,0.3,1.4,1c-0.1,0.1-0.1,0.1-0.5,0.1c-0.3,0-0.5-0.5-1.7-0.5
		c-0.4,0-1,0.6-1,0.9c0,0.3,0.4,1,0.4,1.3c0,0.2-0.2,0.4-0.4,0.4c-0.4,0-0.8-0.1-1-0.4c0-0.1-0.2-0.2-0.3-0.2c-0.1,0-0.3,0-0.4,0.1
		c-0.2,0-0.4,0.1-0.5,0.4c0.1-0.1,0.2-0.2,0.4-0.1c0,0.3,0.2,0.3,0.3,0.4l0,0l0,0.1c-0.3-0.1-0.5,0.1-0.5,0.3
		c-0.1,0.1-0.3,0.4-0.3,0.6c0.1-0.2,0.2-0.3,0.3-0.3c0.1,0.2,0.4,0.2,0.6,0c0,0.1,0,0,0.1,0.1c-0.1,0.1-0.1,0.3-0.1,0.4
		c-0.1,0.1-0.2,0.3-0.1,0.6c0-0.2,0.1-0.3,0.3-0.4c0.1,0,0.1,0.1,0.3,0.1c0.3,0,0.3-0.2,0.4-0.3c0.5-0.4,1,0,1,0.2
		c0.2-0.1,0.3-0.3,0.4-0.5c0.3-0.2,0.6-0.1,0.8,0.1c0-0.2,0-0.4-0.1-0.6c-0.1-0.2-0.1-0.2-0.1-0.5c0-0.2,0.2-0.6,0.5-0.6
		c0.4,0,0.4,0.3,0.8,0.3c0.2,0,0.1,0,0.2,0c-0.3,0.2-0.6,0.6-0.6,1.2c0,0.4,0.6,0.9,0.8,1.2c0.3,0.3,0.2,0.5,0.1,0.6
		c0,0.1,0,0.1-0.1,0.2c-0.1,0.1-0.3,0.3-0.6,0.3c-0.3,0-0.5-0.1-0.6-0.2c-0.2-0.2-0.5-0.1-0.7,0.2c-0.1,0.1-0.4,0.3-0.4,0.6
		c0-0.1,0.2-0.3,0.4-0.2c0.1,0.1,0.2,0.2,0.3,0.2l0,0.1c-0.2,0.1-0.2,0.3-0.2,0.4c-0.1,0.1-0.2,0.2-0.1,0.7c0-0.2,0.2-0.3,0.3-0.4
		c0.3,0.1,0.4,0,0.5-0.1l0.1,0.1c-0.1,0.1-0.1,0.3,0.1,0.4c-0.1,0.3,0,0.4,0.1,0.6c0-0.2-0.1-0.3,0.1-0.5c0.3,0,0.4-0.1,0.4-0.4
		c0-0.1,0.4-0.5,0.6-0.5c0.2,0,0.3,0.2,0.4,0.3c0.2-0.2,0.1-0.4,0.2-0.6c0.1-0.1,0.3-0.2,0.8,0c-0.1-0.3,0-0.6-0.5-0.8
		c0.2-0.2,0.5-0.3,0.7-0.3c-0.2-0.2-0.7-0.4-0.8-0.6c-0.1-0.1-0.3-0.4-0.3-0.6c0-0.7,1.3-0.6,1.3-1.8c0.2,0.1,0.5,0.2,0.8,0.2
		c0.6,0,1-0.4,1.1-1.3c0-0.2,0.1-0.3,0.1-0.4c0.1-0.1,0.2-0.3,0.2-0.7c0-0.3-0.1-0.5-0.3-0.7c0,0.1,0,0.2,0,0.3
		c0,0.1-0.2,0.3-0.3,0.5c0,0.1-0.1,0.3-0.1,0.5c-0.1-0.1-0.1-0.2-0.1-0.3c-0.2-0.4,0.2-0.5,0.2-1c0-0.2,0-0.4-0.2-0.7
		c0,0.1,0,0.3-0.1,0.4c-0.1,0.1-0.2,0.4-0.2,0.8c-0.5-1.2,0.3-2,0.6-2c0.2,0,0.4,0.1,0.4,0.3c0,0.2-0.1,0.4-0.1,0.6
		c0-0.1,0.1-0.2,0.1-0.2c0.1-0.2,0.7-0.4,0.7-0.8C95.8,204.1,95.4,204,95,204.2"/>
	<path id="XMLID_13_" class="st2" d="M99,178.1c0.8,0,1.7-0.8,1.8-0.8l-0.1-0.1c-0.2,0.1-0.9,0.4-1.3,0.4c-0.5,0-0.5-0.5-0.4-0.9
		c-0.3,0.4-0.6,0.5-0.6,0.9C98.4,177.9,98.6,178.1,99,178.1L99,178.1z M101.9,176.1c-0.1,0.1-0.4,0.2-0.5,0.2
		c-0.1-0.1-0.1-0.3,0-0.4c0,0,0.7,0,0.9,0C102.1,175.9,102.1,176,101.9,176.1L101.9,176.1z M106,181.9c0.4-0.5,1-0.4,1-1.2
		c0-0.8-1.2-1-1.3-1.8c0,0.1,0,0.1,0,0.1c-0.1,0.7,0.4,1.2,0.4,1.5c0,0.3-0.2,0.8-0.6,1.1c0.1-0.1,0.2-0.4,0.2-0.6
		c0-0.2-0.1-0.4-0.4-0.4c-0.4,0-0.7,0.5-1.1,0.6c0.3,0.2,0.8-0.1,0.8,0.4c0,0.6-0.7,1-0.7,1.9c0,1.3,0.9,1.8,0.9,2.6
		c0,0.4-0.3,0.8-0.7,0.8c-0.4,0-0.7-0.3-0.8-0.7c-0.1-0.2-0.1-0.7-0.5-1.4c-0.2-0.4-0.7-1.4-0.7-2.5c0-0.8,0.1-1,0.3-1.3
		c0.1,0.1,0.4,0.2,0.5,0.4c-0.1-0.6,0.1-1,0.2-1.2c0.1,0.1,0.3,0.3,0.5,0.4c-0.1-0.3,0.3-0.8,0.1-1.4c0.2,0.1,0.5,0.3,0.7,0.3
		c-0.2-0.3-0.4-1.3-0.9-1.9c0.3,0,0.5-0.1,0.8,0c-0.2-0.5-0.5-0.7-0.9-0.9c0.2-0.1,0.4-0.6,0.5-0.9c-0.1,0.1-0.5,0.1-0.8,0.1
		c0.2-0.1,0.4-0.5,0.4-0.8c-0.1,0.1-0.6,0.2-0.7,0.2c0.1-0.2,0-0.7-0.4-0.7c0.2,0.4-0.3,0.7-0.8,0.7c-0.2,0-0.5,0-0.6,0
		c-0.3,0-0.3,0.1-0.4,0.2c-0.1,0.2-0.2,0.3-0.5,0.4c-0.2,0-0.4,0.1-0.6,0.1c-0.2,0-0.3,0.2-0.2,0.4l0,0.1c0.1,0.1,0.1,0.2,0.1,0.2
		c0,0.1,0.1,0.3,0.1,0.3c0-0.2,0.1-0.3,0.2-0.3c0.2-0.1,0.2-0.1,0.4-0.1c0.2-0.1,0.4,0.1,0.4,0.3c0.1,0.4-0.1,0.7-0.4,0.7
		c-0.1,0-0.2,0-0.3,0c-0.1,0-0.3,0.1-0.3,0.3c0,0.1,0,0.3,0,0.5c0.5-0.3,1-0.4,1.3-0.4c-0.2,0.6-0.2,1-1.1,0.9c-0.1,0-0.4,0-0.6-0.1
		c0.2,0.2,0.1,0.2,0.2,0.5c-0.2,0-0.5-0.1-0.8-0.1c0.2,0.2,0.2,0.4,0.3,0.7c-0.2,0-0.6-0.2-1-0.3c-0.4-0.1-0.7-0.2-1-0.4
		c-0.8-0.4-0.4-0.7-0.4-1.1c0-0.2-0.2-0.4-0.4-0.4c-0.1-0.1-0.3-0.2-0.7-0.3c0.2,0,0.3,0.1,0.3,0.3c-0.1,0.1-0.1,0.3-0.1,0.5
		l-0.1,0.1c-0.1-0.1-0.3-0.2-0.6,0c-0.1,0-0.3-0.1-0.6,0.2c0.3-0.1,0.4-0.1,0.5,0.1c0,0.3,0.2,0.4,0.4,0.4c0,0.1,0,0,0,0.1
		c-0.1,0-0.2,0.1-0.3,0.2c-0.1,0-0.5,0.3-0.5,0.5c0.2-0.1,0.3-0.2,0.5-0.2c0,0.3,0.4,0.3,0.5,0.3c0.1,0,0.3,0,0.3-0.1
		c0.6,0,0.6,0.3,0.6,0.4c0,0.1-0.1,0.5-0.3,0.6c0.5,0,0.8-0.1,1.1-0.1c-0.1,0.2,0,0.5-0.2,0.8c0.5,0,1.1-0.6,1.6-0.6
		c0.2,0,0.2,0,0.4,0.1c0.1,0.7-1.4,1.6-2.4,1.6c-0.4,0-0.9,0-0.9-0.3c0-0.2-0.2-0.4-0.6-0.3c-0.2-0.1-0.5,0-0.7,0.2
		c0.1-0.1,0.3-0.2,0.5,0c0,0.2,0.1,0.3,0.2,0.4l0,0.1c-0.2,0-0.4,0.1-0.5,0.2c-0.2,0.1-0.3,0.3-0.4,0.6c0.2-0.3,0.2-0.3,0.4-0.3
		c0.1,0.1,0.3,0.2,0.5,0.1l0,0.1c-0.1,0.1-0.2,0.2-0.1,0.5c-0.1,0.1-0.2,0.2-0.1,0.7c0.1-0.4,0.2-0.4,0.3-0.5
		c0.3,0.1,0.5-0.1,0.6-0.3c0.1-0.1,0.3-0.2,0.5-0.2c0.4,0,0.6,0.3,0.7,0.7c0.1-0.3,0.3-0.7,0.6-0.7c0.2,0,0.3,0.1,0.3,0.2
		c0.2-0.3,0.5-0.8,0.8-0.8c0,0.3,0.2,0.6,0.5,0.8c0.6,0.4,0.9,0.4,1.5,1.1c-0.1,0.1-0.1,0.1-0.5,0.1c-0.3,0-0.6-0.5-1.8-0.5
		c-0.4,0-1,0.7-1,1c0,0.3,0.4,1.1,0.4,1.3c0,0.3-0.2,0.4-0.4,0.4c-0.4,0-0.9-0.1-1.1-0.5c0-0.1-0.2-0.2-0.4-0.2
		c-0.1,0-0.3,0-0.4,0.1c-0.2,0-0.4,0.1-0.5,0.4c0.1-0.1,0.3-0.2,0.4-0.1c0,0.3,0.3,0.4,0.3,0.4l0,0l0,0.1c-0.3-0.1-0.6,0.1-0.6,0.3
		c-0.1,0.1-0.3,0.4-0.3,0.7c0.1-0.3,0.2-0.3,0.4-0.4c0.1,0.2,0.5,0.2,0.7,0c0,0.1,0,0,0.1,0.1c-0.1,0.1-0.2,0.4-0.1,0.5
		c-0.1,0.1-0.2,0.3-0.1,0.6c0-0.2,0.2-0.3,0.3-0.4c0.1,0,0.1,0.1,0.3,0.1c0.3,0,0.4-0.2,0.4-0.4c0.5-0.4,1,0,1,0.2
		c0.2-0.2,0.3-0.3,0.4-0.6c0.3-0.2,0.6-0.1,0.9,0.1c0-0.3,0-0.4-0.1-0.6c-0.1-0.2-0.1-0.2-0.1-0.5c0-0.3,0.2-0.6,0.5-0.6
		c0.4,0,0.5,0.3,0.9,0.3c0.2,0,0.1,0,0.2,0c-0.3,0.3-0.6,0.6-0.6,1.3c0,0.4,0.6,1,0.8,1.2c0.3,0.4,0.2,0.5,0.1,0.7
		c0,0.1,0,0.1-0.1,0.2c-0.1,0.1-0.3,0.3-0.6,0.3c-0.3,0-0.6-0.1-0.7-0.2c-0.2-0.2-0.5-0.1-0.7,0.2c-0.2,0.1-0.4,0.3-0.4,0.6
		c0-0.1,0.3-0.3,0.4-0.3c0.1,0.1,0.2,0.2,0.4,0.2l0,0.1c-0.2,0.1-0.3,0.3-0.2,0.4c-0.1,0.1-0.2,0.2-0.2,0.7c0-0.2,0.2-0.4,0.3-0.4
		c0.3,0.1,0.4,0,0.5-0.1l0.1,0.1c-0.1,0.2-0.1,0.3,0.1,0.4c-0.1,0.3,0,0.4,0.2,0.6c0-0.2-0.1-0.3,0.2-0.6c0.3,0,0.4-0.2,0.5-0.5
		c0-0.1,0.4-0.5,0.6-0.5c0.2,0,0.3,0.2,0.4,0.3c0.2-0.2,0.1-0.4,0.2-0.6c0.1-0.1,0.3-0.3,0.8,0c-0.1-0.4,0-0.6-0.5-0.9
		c0.2-0.2,0.5-0.3,0.8-0.3c-0.2-0.3-0.7-0.5-0.9-0.6c-0.1-0.1-0.3-0.4-0.3-0.6c0-0.8,1.3-0.7,1.3-1.9c0.2,0.2,0.5,0.2,0.9,0.2
		c0.6,0,1.1-0.4,1.2-1.3c0-0.2,0.1-0.3,0.1-0.4c0.1-0.1,0.2-0.4,0.2-0.8c0-0.4-0.1-0.5-0.3-0.8c0,0.1,0,0.2,0,0.3
		c0,0.1-0.2,0.4-0.3,0.5c0,0.1-0.1,0.3-0.1,0.5c-0.1-0.1-0.1-0.2-0.1-0.3c-0.2-0.4,0.2-0.5,0.2-1.1c0-0.2,0-0.4-0.2-0.7
		c0,0.1-0.1,0.3-0.1,0.4c-0.1,0.1-0.2,0.4-0.2,0.8c-0.5-1.3,0.4-2.1,0.7-2.1c0.2,0,0.4,0.1,0.4,0.3c0,0.2-0.1,0.4-0.1,0.7
		c0-0.1,0.1-0.2,0.1-0.2c0.1-0.2,0.8-0.4,0.8-0.8C106.9,181.8,106.4,181.8,106,181.9"/>
	<path id="XMLID_17_" class="st2" d="M77.9,179.5c0.7,0,1.7-0.7,1.8-0.8l-0.1-0.1c-0.1,0.1-0.8,0.4-1.3,0.4c-0.5,0-0.5-0.5-0.4-0.9
		c-0.3,0.4-0.6,0.5-0.6,0.9C77.3,179.3,77.4,179.5,77.9,179.5z M80.7,177.5c-0.1,0.1-0.4,0.1-0.5,0.2c-0.1-0.1-0.1-0.3,0-0.4
		c0,0,0.7,0,0.9,0C80.8,177.4,80.8,177.5,80.7,177.5L80.7,177.5z M84.6,183.2c0.4-0.5,1-0.4,1-1.1c0-0.8-1.1-1-1.3-1.8
		c0,0.1,0,0,0,0.1c-0.1,0.7,0.4,1.1,0.4,1.5c0,0.2-0.2,0.7-0.5,1c0.1-0.1,0.2-0.4,0.2-0.6c0-0.2-0.1-0.3-0.4-0.4
		c-0.4,0-0.6,0.4-1,0.5c0.3,0.2,0.8-0.1,0.7,0.4c0,0.5-0.7,1-0.7,1.8c0,1.3,0.9,1.8,0.9,2.5c0,0.4-0.3,0.7-0.7,0.7
		c-0.4,0-0.7-0.3-0.8-0.7c-0.1-0.2-0.1-0.7-0.4-1.3c-0.2-0.4-0.7-1.4-0.7-2.4c0-0.8,0.1-0.9,0.3-1.2c0.1,0.1,0.3,0.2,0.5,0.3
		c-0.1-0.5,0.1-0.9,0.2-1.2c0.1,0.1,0.3,0.3,0.5,0.4c0-0.3,0.3-0.8,0.1-1.3c0.2,0.1,0.5,0.3,0.7,0.3c-0.2-0.2-0.4-1.2-0.9-1.8
		c0.3,0,0.4-0.1,0.7,0c-0.2-0.5-0.4-0.7-0.8-0.8c0.2-0.1,0.4-0.6,0.5-0.8c-0.1,0.1-0.5,0.1-0.8,0.1c0.2-0.1,0.4-0.5,0.4-0.8
		c-0.1,0.1-0.6,0.2-0.7,0.2c0.1-0.2,0-0.7-0.3-0.7c0.2,0.4-0.3,0.7-0.7,0.7c-0.1,0-0.5,0-0.6,0c-0.3,0-0.3,0.1-0.4,0.2
		c-0.1,0.2-0.2,0.3-0.5,0.4c-0.2,0-0.4,0.1-0.6,0.1c-0.2,0-0.3,0.2-0.2,0.4l0,0.1c0.1,0.1,0.1,0.2,0.1,0.2c0,0.1,0.1,0.2,0.1,0.3
		c0-0.2,0.1-0.3,0.2-0.3c0.2-0.1,0.2-0.1,0.4-0.1c0.2-0.1,0.3,0.1,0.4,0.3c0.1,0.4-0.1,0.6-0.3,0.6c-0.1,0-0.2,0-0.3,0
		c-0.1,0-0.3,0-0.3,0.3c0,0.1,0,0.3,0,0.4c0.5-0.3,1-0.4,1.3-0.4c-0.2,0.5-0.2,1-1.1,0.9c-0.1,0-0.4,0-0.5,0
		c0.2,0.2,0.1,0.2,0.2,0.5c-0.2-0.1-0.5-0.1-0.8-0.1c0.2,0.2,0.2,0.4,0.3,0.6c-0.2,0-0.6-0.2-0.9-0.3c-0.3-0.1-0.7-0.2-0.9-0.3
		c-0.8-0.4-0.4-0.7-0.4-1c0-0.1-0.1-0.3-0.4-0.4c-0.1-0.1-0.3-0.2-0.7-0.2c0.2,0,0.3,0.1,0.3,0.3c-0.1,0.1-0.1,0.3-0.1,0.5l-0.1,0.1
		c-0.1-0.1-0.3-0.2-0.6,0c-0.1,0-0.3-0.1-0.6,0.2c0.3-0.1,0.4,0,0.5,0.1c0,0.3,0.2,0.4,0.4,0.4c0,0.1,0,0,0,0.1
		c-0.1,0-0.2,0.1-0.3,0.2c-0.1,0-0.5,0.3-0.5,0.5c0.2-0.1,0.3-0.2,0.5-0.1c0,0.3,0.4,0.3,0.5,0.3c0.1,0,0.3,0,0.3-0.1
		c0.5,0,0.5,0.2,0.5,0.4s-0.1,0.5-0.3,0.6c0.5,0,0.8-0.1,1-0.1c-0.1,0.2,0,0.5-0.2,0.8c0.5,0,1.1-0.6,1.6-0.6c0.2,0,0.2,0,0.4,0
		c0.1,0.7-1.3,1.5-2.3,1.5c-0.4,0-0.8,0-0.9-0.3c0-0.2-0.2-0.4-0.6-0.3c-0.2-0.1-0.5,0-0.7,0.2c0.1-0.1,0.3-0.2,0.4,0
		c0,0.2,0.1,0.3,0.2,0.4l0,0.1c-0.2,0-0.4,0.1-0.5,0.2c-0.2,0.1-0.3,0.3-0.4,0.6c0.2-0.2,0.2-0.3,0.4-0.3c0.1,0.1,0.3,0.2,0.5,0.1
		l0,0.1c-0.1,0.1-0.2,0.2-0.1,0.5c-0.1,0.1-0.2,0.2-0.1,0.6c0.1-0.4,0.2-0.4,0.3-0.5c0.3,0.1,0.5-0.1,0.6-0.3
		c0.1-0.1,0.3-0.2,0.5-0.2c0.4,0,0.6,0.3,0.7,0.7c0.1-0.3,0.3-0.6,0.6-0.6c0.1,0,0.3,0.1,0.3,0.2c0.2-0.3,0.5-0.7,0.8-0.8
		c0,0.3,0.2,0.6,0.5,0.8c0.5,0.4,0.9,0.4,1.5,1c-0.1,0.1-0.1,0.1-0.5,0.1c-0.3,0-0.5-0.5-1.7-0.5c-0.4,0-1,0.6-1,0.9
		c0,0.3,0.4,1,0.4,1.3c0,0.2-0.2,0.4-0.4,0.4c-0.4,0-0.8-0.1-1-0.4c0-0.1-0.2-0.2-0.3-0.2c-0.1,0-0.3,0-0.4,0.1
		c-0.2,0-0.4,0.1-0.5,0.4c0.1-0.1,0.3-0.2,0.4-0.1c0,0.3,0.2,0.3,0.3,0.4l0,0l0,0.1c-0.3-0.1-0.5,0.1-0.5,0.3
		c-0.1,0.1-0.3,0.4-0.3,0.6c0.1-0.2,0.2-0.3,0.3-0.3c0.1,0.2,0.4,0.2,0.7,0l0.1,0.1c-0.1,0.1-0.2,0.3-0.1,0.5
		c-0.1,0.1-0.2,0.3-0.1,0.6c0-0.2,0.2-0.3,0.3-0.4c0.1,0,0.1,0.1,0.3,0.1c0.3,0,0.4-0.2,0.4-0.3c0.5-0.4,1,0,1,0.2
		c0.2-0.1,0.3-0.3,0.4-0.6c0.3-0.2,0.6-0.1,0.8,0.1c0-0.2,0-0.4-0.1-0.6c-0.1-0.2-0.1-0.2-0.1-0.5c0-0.3,0.2-0.6,0.5-0.6
		c0.4,0,0.4,0.2,0.8,0.2c0.2,0,0.1,0,0.2,0c-0.3,0.3-0.6,0.6-0.6,1.3c0,0.4,0.6,0.9,0.8,1.2c0.3,0.4,0.2,0.5,0.1,0.6
		c0,0.1,0,0.1-0.1,0.2c-0.1,0.1-0.3,0.3-0.6,0.3c-0.3,0-0.5-0.1-0.6-0.2c-0.2-0.2-0.5-0.1-0.7,0.2c-0.2,0.1-0.4,0.3-0.4,0.6
		c0-0.1,0.2-0.3,0.4-0.3c0,0.1,0.2,0.2,0.3,0.2l0,0.1c-0.2,0.1-0.3,0.3-0.2,0.4c-0.1,0.1-0.2,0.2-0.1,0.7c0-0.2,0.2-0.4,0.3-0.4
		c0.3,0.1,0.4,0,0.5-0.1l0.1,0.1c-0.1,0.1-0.1,0.3,0.1,0.4c-0.1,0.3,0,0.4,0.1,0.6c0-0.2-0.1-0.3,0.2-0.5c0.3,0,0.4-0.2,0.4-0.5
		c0-0.1,0.4-0.5,0.6-0.5c0.2,0,0.3,0.1,0.4,0.3c0.2-0.2,0.1-0.4,0.2-0.6c0.1-0.1,0.3-0.3,0.8,0c-0.1-0.3,0-0.6-0.5-0.8
		c0.2-0.2,0.5-0.3,0.7-0.3c-0.2-0.3-0.7-0.4-0.9-0.6c-0.1-0.1-0.3-0.4-0.3-0.6c0-0.7,1.3-0.7,1.3-1.8c0.2,0.1,0.5,0.2,0.9,0.2
		c0.6,0,1-0.4,1.1-1.3c0-0.2,0.1-0.3,0.1-0.4c0-0.1,0.2-0.3,0.2-0.7c0-0.3-0.1-0.5-0.3-0.7c0,0.1,0,0.2,0,0.3c0,0.1-0.2,0.3-0.3,0.5
		c0,0.1-0.1,0.3-0.1,0.5c-0.1-0.1-0.1-0.2-0.1-0.3c-0.2-0.4,0.2-0.5,0.2-1c0-0.2,0-0.4-0.2-0.7c0,0.1-0.1,0.3-0.1,0.4
		c-0.1,0.1-0.2,0.4-0.2,0.8c-0.5-1.2,0.4-2,0.7-2c0.2,0,0.4,0.1,0.4,0.3c0,0.2-0.1,0.4-0.1,0.7c0-0.1,0.1-0.2,0.1-0.2
		c0.1-0.2,0.7-0.4,0.7-0.8C85.4,183.1,85,183,84.6,183.2"/>
	<path id="XMLID_21_" class="st3" d="M201.8,283.3c1.6,0,3.4,0,5.3-0.1v1.1c0,0-0.3-0.1-0.8-0.1c-3.6,0-3.6,2.1-3.6,5.2v14
		c0,1.5,0,2.8-0.3,4c-1.4,6.8-6.6,8.6-12,8.6c-7.2,0-11.6-3.6-12.8-8.7c-0.2-0.8-0.3-2.5-0.3-4.4v-14.3c0-3.3-0.6-4.3-4.6-4.4v-1.1
		c2.3,0.1,4.6,0.2,7.1,0.2c2.5,0,4.8,0,7.1-0.2v1.1c-0.2,0-0.5,0-0.7,0c-3.4,0-3.9,1.6-3.9,4.4v15.1c0,1.8,0.1,3.3,0.5,4.6
		c1.1,3.9,4,6.1,8.6,6.1c5.5,0,8.8-2.2,9.8-7.1c0.2-1.1,0.3-2.3,0.3-3.7v-14.2c0-4-0.2-5.2-4.3-5.2v-1.1
		C198.3,283.2,199.9,283.3,201.8,283.3"/>
	<path id="XMLID_22_" class="st3" d="M222.9,293.7c4.2,0,7,2.2,7,6.3c0,0.1,0,0.6,0,1.2v10c0,0.3,0,0.6,0,0.7c0,1.9,1,2.4,3.5,2.5v1
		c-2.2-0.1-4-0.2-5.5-0.2c-1.4,0-3.3,0.1-5.6,0.2v-1c2.5-0.1,3.5-0.6,3.5-2.4c0-0.1,0-0.3,0-0.8v-10.9c0-3.4-1.5-5.1-4.5-5.1
		c-3.3,0-6.1,2.9-6.1,6.9v9.1c0,0.3,0,0.6,0,0.7c0,1.9,1,2.4,3.5,2.5v1c-2.2-0.1-4-0.2-5.5-0.2c-1.4,0-3.3,0.1-5.6,0.2v-1
		c2.4-0.1,3.4-0.6,3.4-2.4c0-0.1,0-0.3,0-0.8v-11.5c0-2.8-0.4-3.7-3-3.7c-0.1,0-0.3,0-0.4,0v-1c1.9,0,4-0.7,6.7-1.8
		c0.4,0.8,0.6,2.1,0.7,5C215.4,297.4,217.5,293.7,222.9,293.7"/>
	<path id="XMLID_23_" class="st3" d="M243.9,311.2c0,0.3,0,0.6,0,0.7c0,1.8,0.9,2.4,3.3,2.5v1c-1.8-0.1-3.6-0.2-5.4-0.2
		c-1.7,0-3.5,0.1-5.2,0.2v-1c2.3-0.1,3.2-0.7,3.2-2.4c0-0.1,0-0.3,0-0.8v-10.8c0-0.4,0-0.8,0-1.2c0-2.4-0.1-3.2-2.6-3.2
		c-0.1,0-0.2,0-0.4,0v-1c2.1-0.2,4.5-0.8,7.2-1.8L243.9,311.2L243.9,311.2z M243.8,283.6c0,1.3-1.1,2.5-2.5,2.5
		c-1.4,0-2.4-1.1-2.4-2.5c0-1.4,1.1-2.5,2.4-2.5C242.6,281.1,243.8,282.2,243.8,283.6"/>
	<path id="XMLID_26_" class="st3" d="M253.2,294.3c1.6,0,3.7-0.1,5.2-0.2v1.1c-1.8,0-2.5,0.2-2.5,1.3c0,0.6,0.3,1.8,1.1,3.7
		l4.5,10.3l2.1-5.5c1.6-4.3,2.7-7,2.7-8.3c0-1.1-0.8-1.6-2.5-1.6v-1.1c1.2,0.1,2.7,0.2,3.8,0.2c1,0,2.8-0.1,4-0.2v1.1h-0.3
		c-2.5,0-3.2,1.7-4.6,5.1l-6.2,15.4h-1.1l-7.8-18.4c-0.6-1.4-1.4-2.2-3.8-2.2v-1.1C249.7,294.3,251.6,294.3,253.2,294.3"/>
	<path id="XMLID_27_" class="st3" d="M276.9,302.2c-0.1,1-0.1,1.8-0.1,2.4c0,5.8,3.2,9.6,7.7,9.6c2.5,0,4.2-0.9,6.2-3.2l0.9,0.9
		c-2,2.8-4.8,4.1-8.4,4.1c-6.6,0-10.9-4.7-10.9-10.8c0-6.1,4.5-11.6,11.1-11.6c5.2,0,8.9,3.4,8.9,8.1c0,0.1,0,0.3,0,0.4H276.9
		L276.9,302.2z M287.8,299.7c0-3.2-2-5-4.7-5c-3.1,0-5.5,2.3-6,6.1h10.5C287.8,300.1,287.8,299.8,287.8,299.7"/>
	<path id="XMLID_30_" class="st3" d="M309.3,293.9c2.4,0,3.9,1.1,3.9,2.6c0,1.2-0.7,1.9-1.7,1.9c-2.2,0-1.1-2.8-3.7-2.8
		c-2.6,0-4.8,2.6-4.8,6.5v9.1c0,0.3,0,0.6,0,0.7c0,1.9,1,2.4,3.5,2.5v1c-2.2-0.1-4-0.2-5.6-0.2c-1.4,0-3.2,0.1-5.5,0.2v-1
		c2.4-0.1,3.4-0.6,3.4-2.4c0-0.1,0-0.3,0-0.8v-11c0-3.2-0.8-4.2-3.4-4.2c-0.1,0-0.3,0-0.5,0v-1c2.2-0.3,4.5-0.9,6.9-1.6
		c0.6,1.6,0.8,4.5,0.8,5.3C303.5,296.2,305.9,293.9,309.3,293.9"/>
	<path id="XMLID_31_" class="st3" d="M329.2,296.4l0.1,3.1h-0.9c-0.5-2.8-2.4-4.9-5.8-4.9c-2.1,0-3.6,1.4-3.6,2.9
		c0,2.4,1.7,2.8,4.7,4.3c1.5,0.8,2.8,1.3,3.8,2c1.9,1.2,3.1,2.7,3.1,5.2c0,4.1-3,7-8,7c-2.2,0-4.2-0.7-5.8-2l-0.6,1.3h-0.8
		c0.1-1.8,0.1-2.8,0.1-3.2c0-0.8-0.1-1.9-0.1-3.4h0.8c0.7,3.8,3.1,6,6.5,6c3,0,4.6-1.9,4.6-3.9c0-2.5-1.7-3.2-5.1-4.8
		c-4-1.9-6.4-3.2-6.4-6.7c0-3.3,3.2-5.8,6.6-5.8c2.6,0,3.6,0.4,5.3,1.3l1-1.2h0.7L329.2,296.4"/>
	<path id="XMLID_32_" class="st3" d="M342.1,311.2c0,0.3,0,0.6,0,0.7c0,1.8,0.9,2.4,3.3,2.5v1c-1.8-0.1-3.5-0.2-5.3-0.2
		c-1.7,0-3.5,0.1-5.2,0.2v-1c2.3-0.1,3.2-0.7,3.2-2.4c0-0.1,0-0.3,0-0.8v-10.8c0-0.4,0-0.8,0-1.2c0-2.4-0.1-3.2-2.6-3.2
		c-0.2,0-0.2,0-0.4,0v-1c2.1-0.2,4.4-0.8,7.1-1.8V311.2z M342.1,283.6c0,1.3-1.1,2.5-2.5,2.5c-1.4,0-2.5-1.1-2.5-2.5
		c0-1.4,1.1-2.5,2.5-2.5C341,281.1,342.1,282.2,342.1,283.6"/>
	<path id="XMLID_35_" class="st3" d="M355.2,288.9v5.3h5.4v1.4h-5.3v14.4c0,2.9,0.8,4.3,3,4.3c1.3,0,2.5-0.7,3.5-2.2l0.8,0.7
		c-1.2,2.1-3.1,2.9-5.6,2.9c-3.9,0-5.8-2-5.8-6v-14.2h-2.3v-0.8c2.1-1.3,4-3.3,5.5-6H355.2"/>
	<path id="XMLID_36_" class="st3" d="M367.1,294.3c0.7,0,2.6-0.1,5.5-0.2v1.1c-1.9,0-2.8,0.3-2.8,1.6c0,0.3,0.1,0.8,0.3,1.3
		l4.8,12.4l4.6-11c0.3-0.8,0.5-1.7,0.5-2.4c0-1.3-0.7-1.8-2.5-1.8v-1.1c1.4,0.1,2.6,0.2,3.4,0.2c1,0,2.6-0.1,3.8-0.2v1.1h-0.1
		c-2.1,0-2.4,1-3.4,3.4l-6.2,14.9c-4.4,10.7-6.3,15.3-8.5,15.3c-0.8,0-1.5-0.5-1.5-1.4c0-1.6,1.6-1.9,2.8-2.6
		c1.2-0.7,2.2-2.9,4.3-7.5l0.9-2l-6.9-16.5c-0.9-2.1-1-3.5-3.5-3.5v-1.1C364.4,294.3,365.9,294.3,367.1,294.3"/>
	<path id="XMLID_37_" class="st3" d="M170.5,269.6c6.2-0.1,7.2-1.6,7.2-6.8v-33.1c0-5.2-1-6.7-7.2-6.8v-1.7c2.8,0.1,5.4,0.2,7.7,0.2
		c5.7,0,9.1-0.3,14.1-0.3c10.5,0,17.9,2.7,22.4,8c3.4,4,5.4,9.3,5.4,16.5c0,8.1-2.5,14.4-6.8,18.8c-4.5,4.6-11.1,7.1-20.4,7.1
		c-4.5,0-9.3-0.2-14.2-0.2c-2.7,0-5.4,0-8.2,0.2L170.5,269.6L170.5,269.6z M185.3,259.2c0,6.9,1.6,10.2,9,10.2
		c12,0,16.9-9.1,16.9-23.9c0-17.2-6.5-22.9-19.9-22.9c-4.5,0-5.9,0-5.9,4.1V259.2"/>
	<path id="XMLID_40_" class="st3" d="M229.8,238.4c1.6,0,3.6-0.1,5.8-0.2v23.5c0,0.1,0,0.1,0,0.2c0,5.1,2.4,7.7,7,7.7
		c5.1,0,9.4-4.5,9.4-10.7v-14.2c0-0.7,0-1.2,0-1.3c0-2.3-1.6-3.5-4.8-3.5c-0.2,0-0.4,0-0.6,0v-1.6c2.3,0.1,4.4,0.2,6.2,0.2
		c1.6,0,3.5-0.1,5.7-0.2v24.5c0,0.1,0,0.1,0,0.2c0,4,0.6,6.7,4.3,6.7c0.3,0,0.4,0,0.7,0v1.6c-3.6-0.3-6.4-0.3-11.2-0.1l-0.2-5.9
		c-2.9,4.6-6.9,6.7-12.2,6.7c-8.6,0-11-4.1-11-11.6v-15.6c0-0.7-0.1-1.2-0.1-1.3c0-2.3-1.6-3.5-4.7-3.5c-0.2,0-0.4,0-0.6,0v-1.6
		C226,238.3,228,238.4,229.8,238.4"/>
	<path id="XMLID_41_" class="st3" d="M289.1,238c3.8,0,6,2.1,6,4.1c0,1.9-1.2,2.8-2.4,2.8c-3.8,0-1.9-4.3-5.9-4.3
		c-3.8,0-7.5,3.6-7.5,10.1v14.1c0,0.5,0,0.9,0,1c0,3,1.5,3.8,5.4,3.9v1.6c-3.4-0.2-6.3-0.4-8.6-0.4c-2.2,0-5.2,0.1-8.7,0.4v-1.6
		c3.8-0.1,5.4-1,5.4-3.7c0-0.1,0-0.5,0-1.2v-17.2c0-4.9-1.2-6.6-5.3-6.6c-0.2,0-0.5,0-0.8,0v-1.5c3.4-0.4,7-0.9,10.8-2.1
		c1,2.2,1.3,6.4,1.3,7.8C279.8,242.1,283.4,238,289.1,238"/>
	<path id="XMLID_42_" class="st3" d="M306,244.2c2.3-4.3,6.9-6.6,12-6.6c7,0,11,3.6,11,9.8c0,0.2,0,0.9,0,1.9v15.5c0,0.5,0,0.9,0,1
		c0,3,1.5,3.8,5.4,3.9v1.6c-3.4-0.2-6.3-0.4-8.6-0.4c-2.2,0-5.2,0.1-8.7,0.4v-1.6c3.8-0.1,5.4-1,5.4-3.7c0-0.1,0-0.5,0-1.2v-16.9
		c0-5.3-2.3-7.9-7-7.9c-5.1,0-9.5,4.5-9.5,10.7v14.1c0,0.5,0,0.9,0,1c0,3,1.5,3.8,5.4,3.9v1.6c-3.4-0.2-6.3-0.4-8.7-0.4
		c-2.2,0-5.1,0.1-8.6,0.4v-1.6c3.8-0.1,5.4-1,5.4-3.7c0-0.1,0-0.5,0-1.2v-39.2c0-3.3-1.5-4.5-5.4-4.6v-1.3c2.3-0.2,6.2-0.8,11.9-2.2
		V244.2"/>
	<path id="XMLID_43_" class="st3" d="M357.4,267c-1.6,1.7-4.3,4.8-11.2,4.8c-5.6,0-9.3-3-9.3-7.5c0-4.9,4-7.9,12.2-11.2l3.9-1.5
		c3.4-1.3,4.5-1.3,4.5-3.9v-1.6c0-4.7-1.8-7.2-7.4-7.2c-5.8,0-6,2.5-6.2,4.6c-0.2,1.3-0.5,2.9-2.9,2.9c-1.4,0-2.4-1.2-2.4-2.8
		c0-3.2,4.1-6.2,12.3-6.2c8.7,0,12.8,2.8,12.8,8.6V265c0,2.9,0.9,4.1,2.5,4.1c1,0,1.9-0.5,2.7-1.6l1,1c-1.6,2.5-3.7,3.2-6.6,3.2
		C360,271.8,357.9,269.9,357.4,267z M343.8,263c0,3.5,1.9,6.1,5.2,6.1c5,0,8.4-3.3,8.4-7v-10.6C348.2,255.2,343.8,258.4,343.8,263"
		/>
	<path id="XMLID_46_" class="st3" d="M416.4,237.5c7.5,0,10.8,4.1,10.8,10.8v16.4c0,0.4,0,0.7,0,1c0,3,1.5,3.8,5.4,3.9v1.6
		c-3.4-0.2-6.3-0.4-8.7-0.4c-2.2,0-5.1,0.1-8.6,0.4v-1.6c3.8-0.1,5.3-1,5.3-3.7c0-0.1,0.1-0.5,0.1-1.2v-17.5c0-4.8-2.2-7.3-6.5-7.3
		c-5.2,0-8.8,3.7-8.8,10.5v14.4c0,0.5,0,0.9,0,1c0,2.9,1.5,3.8,5.2,3.9v1.6c-3.2-0.2-6-0.4-8.5-0.4c-2.7,0-5.4,0.1-8.3,0.4v-1.6
		c3.5-0.1,5-1,5-3.7c0-0.1,0-0.5,0-1.2v-17.5c0-4.7-2.2-7.3-6.5-7.3c-5.2,0-8.8,4.1-8.8,10.8v14c0,0.5,0,0.9,0,1
		c0,3,1.5,3.8,5.4,3.9v1.6c-3.4-0.2-6.3-0.4-8.7-0.4c-2.2,0-4.8,0.1-8.3,0.4v-1.6c3.8-0.1,5-1,5-3.7c0-0.1,0-0.5,0-1.2v-17.9
		c0-4.3-0.7-5.7-4.7-5.7c-0.2,0-0.5,0-0.7,0v-1.5c2.9,0,6.3-1,10.5-2.8c0.6,2.2,0.9,4.6,0.9,6.9c0,0.3,0,0.6,0,0.7
		c2-4.1,6.7-6.9,11.8-6.9c7.5,0,9.9,4.8,9.9,7C405.7,241.6,409.6,237.5,416.4,237.5"/>
</g>
</svg>
